<svg xmlns="http://www.w3.org/2000/svg" viewBox="0 0 512 512" width="512" height="512">
  <rect width="512" height="512" rx="112" fill="#0B0F14"/>
  <g id="mark" color="#F5A524">
    <rect x="226" y="60" width="60" height="84" rx="12" fill="currentColor"/>
    <rect x="226" y="60" width="60" height="84" rx="12" fill="currentColor" transform="rotate(45 256 256)"/>
    <rect x="226" y="60" width="60" height="84" rx="12" fill="currentColor" transform="rotate(90 256 256)"/>
    <rect x="226" y="60" width="60" height="84" rx="12" fill="currentColor" transform="rotate(135 256 256)"/>
    <rect x="226" y="60" width="60" height="84" rx="12" fill="currentColor" transform="rotate(180 256 256)"/>
    <rect x="226" y="60" width="60" height="84" rx="12" fill="currentColor" transform="rotate(225 256 256)"/>
    <rect x="226" y="60" width="60" height="84" rx="12" fill="currentColor" transform="rotate(270 256 256)"/>
    <rect x="226" y="60" width="60" height="84" rx="12" fill="currentColor" transform="rotate(315 256 256)"/>
    <circle cx="256" cy="256" r="127" fill="none" stroke="currentColor" stroke-width="54"/>
    <polyline points="198,262 238,302 318,214" fill="none" stroke="currentColor" stroke-width="42" stroke-linecap="round" stroke-linejoin="round"/>
  </g>
</svg>
